# xmcd
#
# Track frame offsets: 
#        150
#        8350
#        17997
#        27830
#        37650
#        47962
#        58870
#        70127
#        80642
#        92782
#        100442
#        111272
#        122022
#        131932
#        141265
#        149890
#        158667
#        170297
#        179042
#        188305
#
# Disc length: 2639 seconds
#
# Revision: 0
# Processed by: cddbd v1.5.1PL2 Copyright (c) Steve Scherf et al.
# Submitted via: ExactAudioCopy v0.95b4
#
DISCID=1a0a4d14
DTITLE=Various Artist - Red Hot Rockabilly [CD3]
DYEAR=1991
DGENRE=Rockabilly
TTITLE0=Wanda Jackson - Let's Have a Party
TTITLE1=Warren Smith - Uranium Rock
TTITLE2=Hayden Thompson - Love My Baby
TTITLE3=Jerry Lee Lewis - Milkshake Mademoiselle
TTITLE4=Bill Allen - Please Give Me Something
TTITLE5=Ray Smith - Right Behind You Baby
TTITLE6=Tommy Sands - The Worrying Kind
TTITLE7=Eddie Cochran - Nervous Breakdown
TTITLE8=Jerry Lee Lewis - Breathless
TTITLE9=Carl Perkins - Glad All Over
TTITLE10=Warren Smith - Sweet, Sweet Girl
TTITLE11=Ray Smith - You Made a Hit
TTITLE12=Wanda Jackson - Mean Mean Man
TTITLE13=Ricky Nelson - Believe What You Say
TTITLE14=Jerry Lee Lewis - Wild One
TTITLE15=Eddie Cochran - C'mon Everybody
TTITLE16=Andy Anderson - Tough Tough Tough
TTITLE17=Burnette Bros - Warm Love
TTITLE18=Ricky Nelson - Waiting in School
TTITLE19=Charlie Rich - Lonely Weekends
EXTD=
EXTT0=
EXTT1=
EXTT2=
EXTT3=
EXTT4=
EXTT5=
EXTT6=
EXTT7=
EXTT8=
EXTT9=
EXTT10=
EXTT11=
EXTT12=
EXTT13=
EXTT14=
EXTT15=
EXTT16=
EXTT17=
EXTT18=
EXTT19=
PLAYORDER=
